<svg xmlns="http://www.w3.org/2000/svg" width="176.104" height="209" viewBox="0 0 176.104 209">
  <g id="Group_22" data-name="Group 22" transform="translate(-763.724 -1859.5)">
    <path id="emoji_" d="M52.925,0a16.573,16.573,0,0,0-14.6,8.395,14.059,14.059,0,0,0-10.311,4.289,14.059,14.059,0,0,0-4.289,10.311V48.91a52.884,52.884,0,0,0-17.246,18.8A51.441,51.441,0,0,0,0,93.075q0,22.082,15.421,37.5T52.925,146q22.082,0,37.5-15.421t15.421-37.5a51.138,51.138,0,0,0-6.479-25.55A53.35,53.35,0,0,0,82.125,48.91V22.995a14.059,14.059,0,0,0-4.289-10.311A14.059,14.059,0,0,0,67.525,8.395,16.573,16.573,0,0,0,52.925,0Zm-14.6,22.995h29.2v6.57h-29.2Zm0,13.87h29.2V43.8h-29.2ZM36.865,58.4H47.45V78.11L31.39,94.17l7.665,7.665,13.87-13.87,13.87,13.87L74.46,94.17,58.4,78.11V58.4H68.985a39.967,39.967,0,0,1,16.06,13.961A36.25,36.25,0,0,1,91.25,93.075a36.992,36.992,0,0,1-11.133,27.192A36.993,36.993,0,0,1,52.925,131.4a36.993,36.993,0,0,1-27.193-11.133A36.993,36.993,0,0,1,14.6,93.075a36.251,36.251,0,0,1,6.2-20.714A39.968,39.968,0,0,1,36.865,58.4ZM52.925,87.965ZM52.925,94.9Z" transform="translate(904.455 2068.5) rotate(180)" fill="#fff"/>
    <g id="Group_17" data-name="Group 17" transform="translate(2 1)">
      <line id="Line_7" data-name="Line 7" x1="27" y1="27.25" transform="translate(763.5 1904.5)" fill="none" stroke="#fff" stroke-width="5"/>
      <line id="Line_10" data-name="Line 10" y1="27.25" x2="27" transform="translate(909.052 1904.5)" fill="none" stroke="#fff" stroke-width="5"/>
    </g>
    <g id="Group_16" data-name="Group 16" transform="translate(1 3)">
      <line id="Line_8" data-name="Line 8" x1="19.104" y1="35" transform="translate(804.5 1869.5)" fill="none" stroke="#fff" stroke-width="5"/>
      <line id="Line_9" data-name="Line 9" y1="35" x2="19.104" transform="translate(876.448 1869.5)" fill="none" stroke="#fff" stroke-width="5"/>
    </g>
    <line id="Line_11" data-name="Line 11" y1="38" transform="translate(851.5 1859.5)" fill="none" stroke="#fff" stroke-width="5"/>
  </g>
</svg>
