<svg xmlns="http://www.w3.org/2000/svg" width="100.64" height="199.407" viewBox="0 0 100.64 199.407">
  <g id="Group_23" data-name="Group 23" transform="translate(-278 -1861.5)">
    <path id="emoji_" d="M240.32-741.186a15.64,15.64,0,0,1-8.155-2.169,15.77,15.77,0,0,1-5.726-5.813,13.367,13.367,0,0,1-9.8-4.078,13.367,13.367,0,0,1-4.078-9.8v-24.639a50.281,50.281,0,0,1-16.4-17.872A48.909,48.909,0,0,1,190-829.68a48.537,48.537,0,0,1,14.662-35.658A48.537,48.537,0,0,1,240.32-880a48.537,48.537,0,0,1,35.658,14.662A48.537,48.537,0,0,1,290.64-829.68a48.621,48.621,0,0,1-6.16,24.292,50.725,50.725,0,0,1-16.4,17.7v24.639a13.367,13.367,0,0,1-4.078,9.8,13.367,13.367,0,0,1-9.8,4.078,15.77,15.77,0,0,1-5.726,5.813A15.639,15.639,0,0,1,240.32-741.186Zm-13.881-21.863H254.2V-769.3H226.439Zm0-13.187H254.2v-6.594H226.439Zm-1.388-20.475h10.064v-18.74l-15.27-15.27,7.288-7.288,13.187,13.187,13.187-13.187,7.288,7.288-15.27,15.27v18.74H255.59a38,38,0,0,0,15.27-13.274,34.466,34.466,0,0,0,5.9-19.694,35.172,35.172,0,0,0-10.585-25.854,35.171,35.171,0,0,0-25.854-10.585,35.172,35.172,0,0,0-25.854,10.585,35.172,35.172,0,0,0-10.585,25.854,34.466,34.466,0,0,0,5.9,19.694A38,38,0,0,0,225.051-796.712ZM240.32-824.821ZM240.32-831.415Z" transform="translate(568.64 1180.907) rotate(180)" fill="#fff"/>
    <g id="Group_20" data-name="Group 20" transform="translate(0.5)">
      <line id="Line_3" data-name="Line 3" y1="43" transform="translate(285.5 1894.5)" fill="none" stroke="#fff" stroke-width="5"/>
      <line id="Line_6" data-name="Line 6" y1="43" transform="translate(371.5 1894.5)" fill="none" stroke="#fff" stroke-width="5"/>
    </g>
    <g id="Group_15" data-name="Group 15" transform="translate(-1.5 1)">
      <line id="Line_4" data-name="Line 4" y1="43" transform="translate(311.5 1860.5)" fill="none" stroke="#fff" stroke-width="5"/>
      <line id="Line_5" data-name="Line 5" y1="43" transform="translate(348.5 1860.5)" fill="none" stroke="#fff" stroke-width="5"/>
    </g>
  </g>
</svg>
